<?xml version="1.0" encoding="UTF-8" standalone="no"?>
<svg
   viewBox="0 0 24 24"
   aria-hidden="true"
   class="r-k200y r-1cvl2hr r-4qtqp9 r-yyyyoo r-5sfk15 r-dnmrzs r-kzbkwu r-bnwqim r-1plcrui r-lrvibr"
   version="1.1"
   id="svg6"
   sodipodi:docname="twitter-logo.svg"
   inkscape:version="1.1.1 (3bf5ae0d25, 2021-09-20)"
   xmlns:inkscape="http://www.inkscape.org/namespaces/inkscape"
   xmlns:sodipodi="http://sodipodi.sourceforge.net/DTD/sodipodi-0.dtd"
   xmlns="http://www.w3.org/2000/svg"
   xmlns:svg="http://www.w3.org/2000/svg">
  <defs
     id="defs10" />
  <sodipodi:namedview
     id="namedview8"
     pagecolor="#ffffff"
     bordercolor="#999999"
     borderopacity="1"
     inkscape:pageshadow="0"
     inkscape:pageopacity="0"
     inkscape:pagecheckerboard="0"
     showgrid="false"
     inkscape:zoom="1.6057216"
     inkscape:cx="5.916343"
     inkscape:cy="28.958942"
     inkscape:window-width="1366"
     inkscape:window-height="705"
     inkscape:window-x="-8"
     inkscape:window-y="-8"
     inkscape:window-maximized="1"
     inkscape:current-layer="svg6" />
  <path
     d="m 116.02798,-52.367241 c -7.62981,3.380872 -15.82614,5.665247 -24.442797,6.697783 8.790267,-5.263196 15.533737,-13.614867 18.713587,-23.556463 -8.22374,4.879424 -17.333824,8.424773 -27.028707,10.325371 -7.766871,-8.260296 -18.823241,-13.432119 -31.067484,-13.432119 -23.501637,0 -42.5624523,19.060816 -42.5624523,42.580728 0,3.326049 0.3837743,6.560722 1.0964993,9.685745 -35.389519,-1.781811 -66.740266,-18.731865 -87.73823,-44.481327 -3.654998,6.304872 -5.756621,13.614869 -5.756621,21.400014 0,14.766193 7.520158,27.805398 18.932889,35.4352068 -6.981046,-0.2284375 -13.541766,-2.1381738 -19.280113,-5.3271598 v 0.54825 c 0,20.6233263 14.665679,37.82923 34.146819,41.740077 -3.581899,0.968575 -7.337408,1.480276 -11.211707,1.480276 -2.741249,0 -5.418536,-0.25585 -8.013583,-0.749275 5.418534,16.904365 21.135025,29.22171 39.766379,29.550658 -14.574305,11.421871 -32.931533,18.229304 -52.869547,18.229304 -3.435698,0 -6.825709,-0.201026 -10.160895,-0.593938 18.841516,12.088908 41.210103,19.124779 65.241716,19.124779 78.308333,0 121.117499,-64.857942 121.117499,-121.108362 0,-1.827499 -0.04568,-3.673273 -0.127923,-5.500772 8.315121,-6.012471 15.533741,-13.496082 21.226401,-22.021363 z"
     id="path2"
     style="fill:#00acee;fill-opacity:1;stroke-width:9.13749"
     inkscape:export-filename="E:\Web Dev\MERN Projects\twitter-clone\client\src\assets\path2.png"
     inkscape:export-xdpi="96"
     inkscape:export-ydpi="96" />
</svg>
